<svg fill="#000000" height="800px" width="800px" version="1.1" id="Layer_1" xmlns="http://www.w3.org/2000/svg" xmlns:xlink="http://www.w3.org/1999/xlink"
     viewBox="0 0 20 20" enable-background="new 0 0 64 64" xml:space="preserve">
<g id="Text-files">
	<path
    clipRule="evenodd"
    d="M9.16679 8.335C8.70747 8.335 8.33512 8.70735 8.33512 9.16667V16.6667C8.33512 17.126 8.70747 17.4983 9.16679 17.4983H16.6668C17.1261 17.4983 17.4985 17.126 17.4985 16.6667V9.16667C17.4985 8.70735 17.1261 8.335 16.6668 8.335H9.16679ZM6.66512 9.16667C6.66512 7.78503 7.78515 6.665 9.16679 6.665H16.6668C18.0484 6.665 19.1685 7.78503 19.1685 9.16667V16.6667C19.1685 18.0483 18.0484 19.1683 16.6668 19.1683H9.16679C7.78515 19.1683 6.66512 18.0483 6.66512 16.6667V9.16667Z"
  fillRule="evenodd"
  />
  <path
    clipRule="evenodd"
    d="M3.33345 2.50166C3.11288 2.50166 2.90134 2.58929 2.74538 2.74525C2.58941 2.90122 2.50179 3.11276 2.50179 3.33333V10.8333C2.50179 11.0539 2.58941 11.2654 2.74538 11.4214C2.90134 11.5774 3.11288 11.665 3.33345 11.665H4.16679C4.62794 11.665 5.00179 12.0388 5.00179 12.5C5.00179 12.9612 4.62794 13.335 4.16679 13.335H3.33345C2.66997 13.335 2.03366 13.0714 1.56451 12.6023C1.09535 12.1331 0.831787 11.4968 0.831787 10.8333V3.33333C0.831787 2.66985 1.09535 2.03354 1.56451 1.56439C2.03366 1.09523 2.66997 0.831665 3.33345 0.831665H10.8335C11.4969 0.831665 12.1332 1.09523 12.6024 1.56439C13.0716 2.03354 13.3351 2.66985 13.3351 3.33333V4.16667C13.3351 4.62782 12.9613 5.00167 12.5001 5.00167C12.039 5.00167 11.6651 4.62782 11.6651 4.16667V3.33333C11.6651 3.11276 11.5775 2.90122 11.4215 2.74525C11.2656 2.58929 11.054 2.50166 10.8335 2.50166H3.33345Z"
  fillRule="evenodd"
  />
</g>
</svg>
